<?xml version="1.0" standalone="no"?>
<!DOCTYPE svg PUBLIC "-//W3C//DTD SVG 20010904//EN"
 "http://www.w3.org/TR/2001/REC-SVG-20010904/DTD/svg10.dtd">
<svg version="1.0" xmlns="http://www.w3.org/2000/svg"
 width="512.000000pt" height="512.000000pt" viewBox="0 0 512.000000 512.000000"
 preserveAspectRatio="xMidYMid meet">

<g transform="translate(0.000000,512.000000) scale(0.100000,-0.100000)"
fill="#000000" stroke="none">
<path d="M2210 3987 c-35 -17 -51 -53 -39 -86 6 -14 36 -53 68 -86 32 -33 64
-70 70 -82 7 -15 11 -131 11 -358 l0 -336 -92 3 -92 3 -59 238 -60 237 27 25
c33 31 36 83 5 111 -20 18 -48 19 -668 22 -427 2 -658 -1 -682 -7 -34 -10 -59
-42 -59 -75 0 -22 40 -66 61 -66 18 0 19 -8 19 -125 l0 -125 -199 0 c-112 0
-211 -5 -228 -10 -46 -16 -53 -45 -53 -209 0 -147 0 -149 -25 -165 -42 -28
-76 -69 -104 -126 l-26 -55 -3 -289 -3 -290 -25 -23 c-42 -39 -54 -83 -54
-199 0 -59 5 -124 12 -145 14 -49 69 -114 115 -138 l36 -18 2 -89 c4 -184 101
-323 269 -381 48 -17 135 -18 1601 -18 1713 0 1596 -5 1705 66 69 44 121 111
151 192 l22 57 167 0 168 0 6 -35 c9 -47 59 -102 104 -115 22 -6 173 -10 365
-10 268 0 333 3 356 15 46 23 54 66 20 109 -19 24 -27 26 -89 26 -66 0 -70 2
-84 28 -7 15 -89 209 -181 432 -93 223 -179 420 -192 438 -33 45 -72 62 -141
62 -70 0 -117 -26 -144 -80 -16 -31 -18 -71 -18 -377 l0 -343 -170 0 c-139 0
-170 3 -170 14 0 8 11 17 25 20 35 9 93 62 118 110 17 33 22 63 25 151 5 130
-7 183 -48 222 l-30 28 0 341 c0 375 -4 408 -60 476 -16 20 -51 47 -77 60
l-48 23 -672 3 -673 3 0 347 0 347 -29 60 c-30 62 -147 187 -186 199 -11 3
-31 0 -45 -7z m-1170 -660 c0 -221 9 -295 46 -372 30 -63 104 -140 169 -173
29 -14 197 -62 395 -112 l345 -86 3 -217 2 -217 -885 0 -885 0 0 259 c0 269 4
297 43 339 49 53 65 56 324 62 227 5 243 6 257 25 13 17 15 72 16 358 l0 337
85 0 85 0 0 -203z m829 166 c6 -21 37 -147 71 -280 56 -226 60 -250 60 -358 0
-63 -2 -115 -5 -115 -21 0 -653 164 -674 175 -34 18 -84 71 -107 115 -17 31
-19 64 -22 268 l-4 232 336 0 335 0 10 -37z m-1149 -448 l0 -85 -165 0 -165 0
0 85 0 85 165 0 165 0 0 -85z m3075 -169 c53 -22 56 -48 53 -406 l-3 -315
-845 0 -845 0 -3 355 c-1 195 0 361 3 367 7 20 1592 19 1640 -1z m803 -1025
c89 -214 165 -396 168 -405 5 -14 -14 -16 -180 -16 l-186 0 0 405 c0 383 1
405 18 405 14 0 52 -81 180 -389z m-3739 145 c-7 -7 -320 -83 -371 -91 -65 -9
-155 -56 -206 -108 -49 -50 -78 -52 -112 -9 -17 21 -20 40 -20 118 l0 94 357
0 c196 0 354 -2 352 -4z m716 -21 c63 -62 -2 -162 -86 -133 -34 12 -63 64 -52
95 22 64 93 84 138 38z m760 -60 l0 -85 -295 0 -295 0 0 85 0 85 295 0 295 0
0 -85z m282 63 c26 -24 31 -82 9 -110 -20 -27 -62 -39 -93 -27 -36 13 -52 38
-53 78 0 72 84 109 137 59z m1313 -57 c0 -100 -13 -139 -54 -156 -29 -13 -32
-12 -86 38 -66 60 -132 92 -220 107 -36 6 -132 28 -215 49 l-150 39 363 1 362
1 0 -79z m-2650 1 c0 -42 33 -125 63 -159 18 -20 52 -46 77 -57 44 -20 62 -21
589 -24 372 -2 561 1 598 8 100 21 183 115 183 207 0 34 4 43 18 43 9 0 117
-26 240 -58 l223 -58 -22 -19 c-36 -33 -79 -103 -98 -158 l-18 -52 -586 -5
c-648 -6 -617 -2 -619 -69 -1 -21 7 -40 21 -54 l22 -22 584 -3 c568 -2 585 -3
585 -22 0 -10 15 -48 34 -84 l35 -66 -1170 0 -1170 0 25 43 c13 23 30 61 37
84 l12 42 144 3 c138 3 146 4 164 27 25 31 24 69 -3 98 -20 22 -28 23 -160 23
l-138 0 -10 28 c-26 69 -48 111 -86 158 l-42 51 217 56 c119 30 224 56 234 56
10 1 17 -6 17 -17z m-625 -181 c127 -57 181 -211 117 -332 -104 -199 -384
-171 -452 45 -16 49 -7 122 19 174 24 47 93 109 136 121 52 16 137 12 180 -8z
m2946 7 c49 -16 87 -45 120 -91 50 -69 56 -67 -201 -67 -127 0 -230 4 -230 9
0 5 15 30 33 57 58 87 177 127 278 92z m149 -317 c0 -12 -50 -83 -69 -99 -105
-83 -241 -76 -332 17 -25 26 -48 57 -51 69 l-6 22 229 0 c126 0 229 -4 229 -9z"/>
<path d="M2584 2689 c-16 -18 -19 -37 -19 -129 0 -127 12 -150 75 -150 63 0
75 23 75 150 0 127 -12 150 -75 150 -25 0 -43 -7 -56 -21z"/>
<path d="M2826 2688 c-12 -17 -16 -49 -16 -128 0 -127 11 -150 69 -150 64 0
76 23 76 150 0 92 -3 111 -19 129 -27 30 -89 29 -110 -1z"/>
<path d="M3070 2690 c-18 -18 -20 -33 -20 -130 0 -126 12 -150 73 -150 60 0
72 25 72 150 0 92 -3 111 -19 129 -25 27 -79 28 -106 1z"/>
<path d="M1469 1572 c-30 -25 -30 -75 0 -105 20 -20 32 -22 132 -22 104 0 112
1 130 24 25 30 24 76 -1 101 -18 18 -33 20 -129 20 -91 0 -113 -3 -132 -18z"/>
<path d="M501 1564 c-24 -30 -26 -43 -10 -78 17 -37 60 -51 97 -32 16 8 32 23
36 31 30 80 -72 144 -123 79z"/>
</g>
</svg>
