<?xml version="1.0" standalone="no"?>
<!DOCTYPE svg PUBLIC "-//W3C//DTD SVG 20010904//EN"
 "http://www.w3.org/TR/2001/REC-SVG-20010904/DTD/svg10.dtd">
<svg version="1.0" xmlns="http://www.w3.org/2000/svg"
 width="512.000000pt" height="512.000000pt" viewBox="0 0 512.000000 512.000000"
 preserveAspectRatio="xMidYMid meet">

<g transform="translate(0.000000,512.000000) scale(0.100000,-0.100000)"
fill="#000000" stroke="none">
<path d="M959 5097 c-59 -29 -919 -623 -942 -649 -15 -18 -17 -45 -17 -243 0
-210 1 -224 21 -249 l20 -26 380 0 379 0 0 -1577 c0 -1504 1 -1580 19 -1618
10 -22 25 -46 33 -53 14 -11 13 -23 -9 -111 l-25 -99 -86 -4 c-97 -5 -132 -19
-186 -74 -43 -44 -66 -109 -66 -186 l0 -58 -55 0 c-46 0 -60 -4 -80 -25 -32
-31 -32 -69 0 -100 l24 -25 664 0 c657 0 665 0 691 21 19 15 26 30 26 54 0 49
-37 75 -105 75 l-52 0 -5 83 c-3 57 -10 91 -23 112 -55 88 -107 117 -225 124
l-85 6 -24 94 c-16 60 -21 98 -15 106 5 7 18 25 29 41 20 28 20 48 25 1339 l5
1310 55 6 c30 3 74 16 98 28 71 36 93 78 163 316 l64 215 1337 0 1338 0 0
-101 c0 -113 14 -156 61 -190 16 -11 45 -23 64 -26 l35 -6 0 -431 0 -431 -240
-400 c-151 -252 -240 -410 -240 -426 0 -15 9 -37 19 -50 l19 -24 494 -3 c271
-1 503 0 516 3 32 8 62 41 62 69 0 13 -106 200 -240 424 l-240 401 0 435 0
436 21 0 c40 0 98 42 119 85 16 33 20 62 20 138 l0 97 139 0 c139 0 140 0 160
26 12 15 21 37 21 49 0 26 -251 364 -283 382 -16 9 -111 12 -347 13 l-325 0
-1547 360 c-851 198 -1562 360 -1581 360 -18 0 -53 -10 -78 -23z m91 -131 c0
-3 14 -124 30 -271 17 -147 30 -273 30 -281 0 -11 -17 -14 -76 -14 l-76 0 5
33 c3 17 18 146 33 285 21 188 31 252 41 252 7 0 13 -2 13 -4z m1295 -296
c616 -144 1125 -262 1130 -265 6 -2 -490 -4 -1100 -4 l-1110 -1 -28 248 c-30
266 -31 282 -20 282 4 0 511 -117 1128 -260z m-1510 -40 c-14 -118 -25 -218
-25 -222 0 -5 -58 -8 -130 -8 -104 0 -130 3 -130 14 0 8 -9 24 -19 37 -17 21
-30 24 -112 29 l-94 5 264 182 c146 101 266 181 267 180 2 -2 -8 -99 -21 -217z
m-435 -425 l0 -125 -125 0 -125 0 0 125 0 125 125 0 125 0 0 -125z m4405 -7
c21 -29 49 -68 63 -85 l24 -33 -2171 0 -2171 0 0 85 0 85 2108 0 2108 0 39
-52z m-3315 -281 c0 -8 -22 -89 -49 -181 -33 -111 -57 -176 -72 -192 -22 -24
-24 -24 -221 -24 l-198 0 0 205 0 205 270 0 c218 0 270 -3 270 -13z m3160 -72
l0 -85 -85 0 -85 0 0 85 0 85 85 0 85 0 0 -85z m-3530 -1765 l0 -1290 -85 0
-85 0 0 1290 0 1290 85 0 85 0 0 -1290z m3624 197 c91 -153 166 -280 166 -283
0 -2 -155 -4 -345 -4 -190 0 -345 3 -345 6 0 17 343 574 350 567 4 -4 82 -133
174 -286z m-3670 -1704 c9 -38 19 -76 22 -85 5 -16 -2 -18 -59 -18 l-64 0 20
85 c18 74 24 85 43 85 18 0 24 -10 38 -67z m340 -278 c23 -21 26 -32 26 -85
l0 -60 -406 0 -406 0 4 62 c4 51 9 65 32 85 l27 23 348 0 348 0 27 -25z"/>
</g>
</svg>
