<?xml version="1.0" standalone="no"?>
<!DOCTYPE svg PUBLIC "-//W3C//DTD SVG 20010904//EN"
 "http://www.w3.org/TR/2001/REC-SVG-20010904/DTD/svg10.dtd">
<svg version="1.0" xmlns="http://www.w3.org/2000/svg"
 width="512.000000pt" height="512.000000pt" viewBox="0 0 512.000000 512.000000"
 preserveAspectRatio="xMidYMid meet">

<g transform="translate(0.000000,512.000000) scale(0.100000,-0.100000)"
fill="#000000" stroke="none">
<path d="M4165 4346 c-61 -18 -1829 -815 -1882 -850 -100 -64 -130 -112 -224
-362 -39 -104 -80 -212 -90 -240 l-19 -51 -125 -5 c-107 -4 -131 -8 -172 -29
-96 -50 -133 -133 -133 -294 l0 -85 -626 0 c-619 0 -627 0 -661 -21 -18 -12
-43 -39 -54 -60 -19 -38 -20 -56 -17 -402 l3 -362 24 -34 c43 -60 83 -71 279
-71 l172 0 0 -45 0 -45 -190 0 c-219 0 -270 -12 -346 -82 -171 -158 -120 -426
101 -525 38 -17 108 -18 1275 -18 l1235 0 53 24 c68 31 145 114 167 181 53
160 -20 329 -173 398 -29 14 -78 18 -242 22 l-205 5 -3 42 -3 42 260 3 c256 3
261 3 283 26 23 22 23 24 23 325 l0 303 -107 218 c-60 120 -108 224 -108 232
0 26 92 338 113 382 10 23 36 56 56 73 30 25 1210 626 1212 617 0 -2 152 -451
338 -998 l338 -995 -256 -257 -256 -258 -76 0 c-66 0 -78 -3 -97 -23 -27 -29
-28 -67 -3 -98 l19 -24 449 0 c443 0 448 0 489 22 53 28 107 91 122 142 8 26
12 149 12 379 l0 340 -271 1044 c-149 573 -279 1083 -290 1131 -11 49 -28 106
-39 128 -63 123 -223 192 -355 155z m138 -150 c44 -18 95 -78 103 -122 13 -70
-26 -148 -90 -178 -104 -49 -223 18 -234 134 -11 118 113 212 221 166z m-373
-161 c0 -25 13 -86 30 -137 16 -51 28 -93 27 -93 -1 -1 -267 -136 -592 -300
-324 -164 -608 -311 -631 -326 -89 -60 -127 -123 -174 -280 -16 -57 -32 -110
-35 -117 -3 -9 -16 -6 -45 13 -55 35 -118 45 -272 45 -120 0 -130 1 -123 18 4
9 37 98 74 197 82 216 100 253 143 291 19 17 155 85 303 152 149 67 497 225
775 351 278 126 508 230 513 230 4 1 7 -19 7 -44z m783 -1177 l247 -953 -62
-62 -63 -62 -327 967 c-181 532 -328 970 -328 975 0 4 27 7 60 7 63 0 147 26
190 60 14 11 28 20 31 20 3 0 117 -429 252 -952z m-2849 -185 c3 -10 17 -61
31 -113 14 -52 28 -103 31 -113 5 -16 -4 -17 -123 -15 l-128 3 -3 75 c-6 141
22 177 140 179 36 1 48 -3 52 -16z m562 -2 c11 -8 83 -138 160 -293 l139 -279
0 -72 0 -72 -237 0 -238 0 -24 25 c-19 20 -43 94 -115 360 -50 185 -91 339
-91 344 0 4 87 6 193 4 142 -2 197 -7 213 -17z m-506 -716 l0 -325 -805 0
-805 0 0 325 0 325 805 0 805 0 0 -325z m264 -128 c38 -20 58 -22 294 -25
l253 -4 -3 -81 -3 -82 -325 0 -325 0 -3 145 -3 145 38 -38 c20 -21 55 -48 77
-60z m2786 -376 c0 -239 0 -240 -24 -268 l-24 -28 -249 -3 -248 -3 270 271
c148 148 271 270 272 270 2 0 3 -108 3 -239z m-2810 -16 l0 -45 -685 0 -685 0
0 45 0 45 685 0 685 0 0 -45z m560 -216 c44 -27 62 -52 76 -103 21 -78 -11
-145 -86 -183 l-44 -23 -1188 0 c-1289 0 -1223 -3 -1281 55 -74 75 -52 206 43
256 33 18 86 19 1240 19 l1205 0 35 -21z"/>
<path d="M501 2164 c-12 -15 -21 -33 -21 -40 0 -29 25 -64 53 -74 41 -14 564
-14 606 1 53 19 69 81 31 119 -19 19 -33 20 -334 20 l-315 0 -20 -26z"/>
<path d="M501 1924 c-12 -15 -21 -33 -21 -40 0 -29 25 -64 53 -74 41 -14 564
-14 606 1 53 19 68 77 31 117 -21 22 -25 22 -335 22 l-314 0 -20 -26z"/>
<path d="M261 1124 c-34 -43 -24 -86 26 -113 44 -23 103 14 103 65 0 37 -37
74 -75 74 -24 0 -39 -7 -54 -26z"/>
<path d="M505 1125 c-14 -13 -25 -31 -25 -39 0 -28 22 -64 47 -75 17 -8 295
-11 957 -11 929 0 933 0 960 21 33 26 36 79 6 109 -20 20 -33 20 -970 20
l-951 0 -24 -25z"/>
<path d="M2590 1130 c-63 -63 24 -164 93 -110 53 42 24 130 -43 130 -17 0 -39
-9 -50 -20z"/>
</g>
</svg>
