<?xml version="1.0" standalone="no"?>
<!DOCTYPE svg PUBLIC "-//W3C//DTD SVG 20010904//EN"
 "http://www.w3.org/TR/2001/REC-SVG-20010904/DTD/svg10.dtd">
<svg version="1.0" xmlns="http://www.w3.org/2000/svg"
 width="512.000000pt" height="512.000000pt" viewBox="0 0 512.000000 512.000000"
 preserveAspectRatio="xMidYMid meet">

<g transform="translate(0.000000,512.000000) scale(0.100000,-0.100000)"
fill="#000000" stroke="none">
<path d="M3335 4107 c-43 -11 -145 -104 -145 -131 0 -14 -151 -16 -1560 -16
-1351 0 -1565 -2 -1589 -15 -46 -23 -54 -66 -20 -109 19 -24 26 -26 103 -26
l83 0 574 -446 c316 -246 579 -451 584 -456 7 -7 -3 -8 -29 -3 -68 12 -250 6
-329 -10 -332 -68 -607 -312 -716 -633 -146 -429 44 -918 441 -1137 375 -205
822 -148 1125 146 108 103 203 250 242 371 l12 36 54 -19 c50 -17 86 -19 395
-19 309 0 345 2 395 19 l54 19 12 -36 c20 -63 85 -184 131 -247 288 -391 809
-504 1236 -270 275 152 459 438 488 761 l7 71 61 5 c74 6 116 26 148 70 21 31
23 44 26 195 3 147 1 165 -17 202 -12 22 -30 45 -40 51 -18 9 -20 25 -23 227
-3 213 -4 219 -30 276 -59 126 -383 652 -430 699 -55 54 -131 94 -207 108 -70
13 -762 13 -820 -1 -67 -15 -125 -61 -155 -121 l-26 -52 0 -268 0 -268 -131 0
c-131 0 -131 0 -125 23 134 528 216 822 235 841 21 21 24 21 637 26 l616 5 19
24 c10 13 19 29 19 37 0 26 -23 62 -47 73 -32 15 -1201 13 -1258 -2z m-195
-304 c0 -5 -90 -350 -199 -768 l-198 -760 -82 -3 c-44 -2 -81 1 -81 5 0 4 80
313 177 686 191 733 188 717 130 745 -36 17 -79 2 -96 -34 -6 -14 -90 -329
-187 -702 -97 -372 -178 -680 -181 -685 -5 -9 -122 80 -129 98 -3 7 67 292
157 633 109 419 159 629 155 646 -4 15 -20 33 -38 42 -28 15 -34 15 -64 1 -18
-9 -35 -24 -38 -34 -3 -10 -73 -279 -156 -598 -83 -319 -153 -581 -155 -583
-4 -5 -121 84 -129 97 -3 5 55 243 130 530 89 341 134 529 130 546 -4 14 -20
32 -37 41 -26 13 -36 13 -60 3 -17 -6 -34 -19 -38 -28 -5 -9 -64 -230 -131
-491 -68 -261 -127 -479 -131 -484 -13 -14 -135 88 -131 110 2 10 51 200 109
422 93 357 104 406 93 432 -22 53 -103 61 -128 13 -6 -10 -54 -187 -107 -393
-54 -206 -99 -378 -102 -382 -5 -10 -133 91 -133 105 0 5 36 150 81 320 70
269 79 313 69 337 -22 53 -103 61 -128 13 -6 -10 -42 -142 -82 -293 -39 -151
-73 -276 -75 -278 -3 -4 -135 97 -135 103 0 1 25 98 56 215 60 230 60 242 11
275 -31 20 -73 11 -92 -19 -8 -11 -33 -95 -56 -186 -23 -91 -46 -169 -50 -173
-4 -5 -36 14 -72 42 l-65 52 29 111 c33 122 31 143 -14 173 -31 20 -73 11 -92
-19 -7 -11 -22 -51 -31 -88 -10 -38 -22 -68 -26 -68 -8 0 -315 235 -348 266
-12 12 189 14 1328 14 738 0 1342 -3 1342 -7z m1255 -176 c22 -10 50 -28 63
-40 l24 -22 -377 -5 -377 -5 -19 -24 c-17 -21 -19 -40 -19 -185 0 -181 9 -214
71 -273 68 -64 59 -63 587 -63 l479 0 29 -57 c28 -57 29 -61 32 -244 l4 -187
-94 -4 -93 -5 -29 36 c-92 113 -236 226 -355 278 -231 103 -502 113 -729 27
-35 -13 -66 -24 -68 -24 -2 0 -4 172 -4 383 l0 384 23 20 c12 11 29 23 37 26
8 3 186 5 395 4 342 -2 384 -4 420 -20z m235 -294 c25 -42 58 -98 73 -125 l29
-48 -422 0 -421 0 -24 25 c-23 22 -25 31 -25 125 l0 100 373 0 372 0 45 -77z
m-1262 -495 l3 -87 -113 -113 c-119 -119 -183 -214 -230 -341 -12 -32 -26 -56
-32 -53 -6 3 -29 10 -51 17 -22 7 -41 14 -43 15 -3 2 150 603 163 642 4 10 39
12 152 10 l148 -3 3 -87z m-1922 -113 c557 -181 740 -886 341 -1312 -106 -113
-220 -183 -374 -229 -118 -35 -297 -38 -417 -5 -277 74 -488 280 -572 556 -37
124 -40 310 -6 429 78 271 275 478 537 562 148 47 342 47 491 -1z m2719 1
c262 -84 459 -291 537 -562 34 -119 31 -305 -6 -429 -84 -276 -295 -482 -572
-556 -120 -33 -299 -30 -417 5 -154 46 -268 116 -374 229 -362 387 -251 1016
222 1263 179 93 415 112 610 50z m-1985 -457 c0 -4 -8 -9 -17 -12 -10 -2 -25
-8 -34 -11 -13 -6 -20 3 -32 36 -8 24 -18 52 -23 63 -5 13 10 5 49 -25 31 -25
57 -48 57 -51z m2788 -31 l-3 -123 -50 0 -49 0 -17 70 c-9 39 -26 94 -37 123
l-22 52 90 0 91 0 -3 -122z m-2028 -143 c21 -22 24 -38 28 -114 3 -55 0 -103
-8 -126 -21 -63 -35 -65 -400 -65 -365 0 -379 2 -400 65 -8 23 -11 71 -8 126
4 76 7 92 28 114 l23 25 357 0 357 0 23 -25z"/>
<path d="M1042 2576 c-72 -18 -187 -77 -245 -125 -100 -83 -174 -196 -213
-326 -29 -94 -25 -257 9 -361 64 -195 212 -342 412 -410 65 -22 99 -27 180
-27 121 -1 184 13 294 65 162 77 294 242 335 418 18 76 21 207 5 282 -16 80
-91 225 -148 289 -66 74 -169 143 -261 176 -63 23 -95 27 -195 30 -75 1 -140
-3 -173 -11z m289 -152 c313 -92 449 -462 268 -732 -171 -257 -527 -291 -746
-71 -85 85 -143 224 -143 340 0 114 57 246 145 335 61 62 110 93 200 125 65
23 202 25 276 3z"/>
<path d="M1065 2242 c-60 -29 -121 -86 -148 -139 -27 -52 -39 -137 -28 -197
14 -74 41 -124 94 -173 57 -52 88 -69 160 -82 147 -27 294 57 348 199 40 105
17 180 -54 180 -42 0 -66 -25 -74 -76 -7 -50 -40 -110 -72 -131 -65 -43 -152
-34 -207 21 -97 97 -49 247 90 276 67 14 96 38 96 80 0 75 -95 94 -205 42z"/>
<path d="M3755 2571 c-126 -37 -227 -100 -310 -193 -54 -61 -128 -209 -144
-286 -16 -75 -13 -206 5 -282 41 -176 173 -341 335 -418 110 -52 173 -66 294
-65 81 0 115 5 180 27 200 68 348 215 412 410 34 104 38 267 9 361 -39 130
-113 242 -213 326 -59 49 -190 113 -261 128 -80 17 -237 12 -307 -8z m306
-150 c93 -32 141 -61 204 -125 88 -89 145 -221 145 -335 0 -116 -58 -255 -143
-340 -219 -220 -575 -186 -746 71 -179 267 -50 631 259 729 76 25 210 25 281
0z"/>
<path d="M3804 2249 c-62 -23 -134 -92 -165 -157 -31 -63 -37 -163 -14 -231
48 -146 201 -237 352 -210 137 25 239 133 258 274 5 43 3 55 -15 78 -41 52
-130 23 -130 -42 0 -14 -9 -44 -19 -67 -57 -124 -223 -133 -289 -15 -58 102 2
219 124 242 27 5 57 18 68 29 24 24 25 74 1 100 -24 26 -101 26 -171 -1z"/>
<path d="M2270 2010 c-26 -26 -26 -81 0 -105 46 -42 120 -10 120 52 0 42 -30
73 -70 73 -17 0 -39 -9 -50 -20z"/>
</g>
</svg>
